<svg width="22" height="28" viewBox="0 0 22 28" fill="none" xmlns="http://www.w3.org/2000/svg">
<g id="el:map-marker" clip-path="url(#clip0_8_1887)">
<path id="Vector" d="M19.5402 15.4568L20.151 15.9176L19.5402 15.4568L11.1406 26.5888L2.74101 15.4568C1.8069 14.2188 1.43594 12.4234 1.43594 10.5547C1.43594 5.19493 5.78089 0.85 11.1406 0.85C16.5004 0.85 20.8453 5.19493 20.8453 10.5547C20.8453 11.3672 20.7336 12.3212 20.5059 13.2212C20.2758 14.1311 19.9431 14.9228 19.5402 15.4568ZM16.4323 10.5547C16.4323 7.63255 14.0628 5.26303 11.1406 5.26303C8.21848 5.26303 5.84899 7.63255 5.84899 10.5547C5.84899 13.4768 8.21848 15.8463 11.1406 15.8463C14.0628 15.8463 16.4323 13.4768 16.4323 10.5547Z" stroke="white" stroke-width="1.7"/>
</g>
<defs>
<clipPath id="clip0_8_1887">
<rect width="21.28" height="28" fill="white" transform="translate(0.5)"/>
</clipPath>
</defs>
</svg>
